<mxfile host="app.diagrams.net" modified="2023-08-12T09:41:46.714Z" agent="Mozilla/5.0 (Windows NT 10.0; Win64; x64; rv:109.0) Gecko/20100101 Firefox/116.0" etag="rpU8BH93VV9nvV2_gVPi" version="21.6.6" type="github">
  <diagram name="Page-1" id="IJhbjIuJyXnWqBRTXmmZ">
    <mxGraphModel dx="1434" dy="774" grid="1" gridSize="10" guides="1" tooltips="1" connect="1" arrows="1" fold="1" page="1" pageScale="1" pageWidth="1100" pageHeight="850" math="0" shadow="0">
      <root>
        <mxCell id="0" />
        <mxCell id="1" parent="0" />
        <mxCell id="mRTD5rG8gNT0W8Bh_Zt8-7" style="edgeStyle=orthogonalEdgeStyle;rounded=0;orthogonalLoop=1;jettySize=auto;html=1;entryX=0.5;entryY=0;entryDx=0;entryDy=0;" edge="1" parent="1" source="NeooUXbfBp_TAT1zgUKr-1" target="mRTD5rG8gNT0W8Bh_Zt8-1">
          <mxGeometry relative="1" as="geometry" />
        </mxCell>
        <mxCell id="NeooUXbfBp_TAT1zgUKr-1" value="Data pendukung dalam proses penyelesaian" style="rounded=1;whiteSpace=wrap;html=1;" parent="1" vertex="1">
          <mxGeometry x="440" y="140" width="250" height="60" as="geometry" />
        </mxCell>
        <mxCell id="mRTD5rG8gNT0W8Bh_Zt8-3" style="edgeStyle=orthogonalEdgeStyle;rounded=0;orthogonalLoop=1;jettySize=auto;html=1;entryX=0;entryY=0.5;entryDx=0;entryDy=0;" edge="1" parent="1" source="NeooUXbfBp_TAT1zgUKr-2" target="mRTD5rG8gNT0W8Bh_Zt8-1">
          <mxGeometry relative="1" as="geometry" />
        </mxCell>
        <mxCell id="NeooUXbfBp_TAT1zgUKr-2" value="&lt;div&gt;Kondisi Saat Ini :&lt;/div&gt;&lt;div&gt;- Proses Permohonan bantuan dilakukan secara manual&lt;/div&gt;&lt;div&gt;- Setiap keluhan tidak terdata&lt;/div&gt;&lt;div&gt;- Sulitnya membuat laporan&lt;br&gt;&lt;/div&gt;" style="rounded=1;whiteSpace=wrap;html=1;" parent="1" vertex="1">
          <mxGeometry x="120" y="330" width="250" height="110" as="geometry" />
        </mxCell>
        <mxCell id="mRTD5rG8gNT0W8Bh_Zt8-2" style="edgeStyle=orthogonalEdgeStyle;rounded=0;orthogonalLoop=1;jettySize=auto;html=1;entryX=1;entryY=0.5;entryDx=0;entryDy=0;" edge="1" parent="1" source="NeooUXbfBp_TAT1zgUKr-4" target="mRTD5rG8gNT0W8Bh_Zt8-1">
          <mxGeometry relative="1" as="geometry" />
        </mxCell>
        <mxCell id="mRTD5rG8gNT0W8Bh_Zt8-6" value="" style="edgeStyle=orthogonalEdgeStyle;rounded=0;orthogonalLoop=1;jettySize=auto;html=1;" edge="1" parent="1" source="NeooUXbfBp_TAT1zgUKr-4" target="mRTD5rG8gNT0W8Bh_Zt8-5">
          <mxGeometry relative="1" as="geometry" />
        </mxCell>
        <mxCell id="NeooUXbfBp_TAT1zgUKr-4" value="&lt;div&gt;Kondisi yang diharapkan :&lt;/div&gt;&lt;div&gt;- Terdapat sistem aplikasi sebagai media permohonan bantuan&lt;br&gt;&lt;/div&gt;&lt;div&gt;- Setiap Keluhan terdata secara otomatis&lt;/div&gt;&lt;div&gt;- Laporan dapat dibuat secara otomatis&lt;br&gt;&lt;/div&gt;" style="rounded=1;whiteSpace=wrap;html=1;" parent="1" vertex="1">
          <mxGeometry x="770" y="300" width="250" height="170" as="geometry" />
        </mxCell>
        <mxCell id="mRTD5rG8gNT0W8Bh_Zt8-1" value="Perancangan Sistem Aplikasi Helpdesk Dengan Metode Ticketing Pada PT Immobi Solusi Prima" style="ellipse;whiteSpace=wrap;html=1;aspect=fixed;" vertex="1" parent="1">
          <mxGeometry x="470" y="290" width="190" height="190" as="geometry" />
        </mxCell>
        <mxCell id="mRTD5rG8gNT0W8Bh_Zt8-4" style="edgeStyle=orthogonalEdgeStyle;rounded=0;orthogonalLoop=1;jettySize=auto;html=1;exitX=0.5;exitY=1;exitDx=0;exitDy=0;" edge="1" parent="1" source="NeooUXbfBp_TAT1zgUKr-4" target="NeooUXbfBp_TAT1zgUKr-4">
          <mxGeometry relative="1" as="geometry" />
        </mxCell>
        <mxCell id="mRTD5rG8gNT0W8Bh_Zt8-5" value="Implementasi dan Evaluasi" style="whiteSpace=wrap;html=1;rounded=1;" vertex="1" parent="1">
          <mxGeometry x="770" y="520" width="250" height="60" as="geometry" />
        </mxCell>
      </root>
    </mxGraphModel>
  </diagram>
</mxfile>
